<svg xmlns="http://www.w3.org/2000/svg" viewBox="0 0 24 24" fill="#16a34a">
  <path d="M12 2C6.48 2 2 6.48 2 12s4.48 10 10 10 10-4.48 10-10S17.52 2 12 2zm-2 15l-5-5 1.41-1.41L10 14.17l7.59-7.59L19 8l-9 9z"/>
  <path d="M12 6c-1.5 0-2.7.5-3.5 1.3-.5.5-.3 1.3.4 1.5.5.2 1.1 0 1.4-.3.4-.4 1-0.5 1.7-0.5 1.7 0 3 1.3 3 3 0 .7-.2 1.3-.5 1.8l2.5 2.5c.8-1.1 1.2-2.5 1-4-.4-2.8-2.7-5-5.5-5.3-.2 0-.3 0-.5 0z" fill="#f59e0b"/>
  <path d="M7.5 10c-.3.6-.5 1.3-.5 2 0 2.8 2.2 5 5 5 .7 0 1.4-.1 2-.4l-6.5-6.6z" fill="#16a34a"/>
</svg>
